<?xml version="1.0" encoding="utf-8"?>
<!-- Generator: Adobe Illustrator 22.1.0, SVG Export Plug-In . SVG Version: 6.00 Build 0)  -->
<svg version="1.1" id="Layer_1" xmlns="http://www.w3.org/2000/svg" xmlns:xlink="http://www.w3.org/1999/xlink" x="0px" y="0px"
	 viewBox="0 0 102.4 104.5" style="enable-background:new 0 0 102.4 104.5;" xml:space="preserve">
<style type="text/css">
	.st0{fill:#FFFFFF;stroke:#FFFFFF;stroke-width:3;stroke-miterlimit:10;}
</style>
<path class="st0" d="M4.6,6.6c-2,2-2,5.2,0,7.2l86.8,86.8c2,2,5.2,2,7.2,0s2-5.2,0-7.2c-17.1-17-34.2-34-51.3-51.1
	C35.4,30.4,23.6,18.5,11.7,6.6C9,5.2,6.1,5.1,4.6,6.6z"/>
<g>
	<path class="st0" d="M49.2,49L3.9,94.3c-2,2-2,5.2,0,7.2s5.2,2,7.2,0l45.3-45.3L49.2,49z"/>
	<path class="st0" d="M97.9,7.4c-2-2-5.2-2-7.2,0c-14.3,14-28.7,28.1-43,42.1c1.6,3.3,3.2,6.7,4.8,10c15.2-15,30.3-29.9,45.5-44.9
		C99.9,12.6,99.9,9.4,97.9,7.4z"/>
</g>
</svg>
